<svg width="43" height="43" viewBox="0 0 43 43" fill="none" xmlns="http://www.w3.org/2000/svg">
<path d="M35.9819 26.9574C35.8998 26.6621 36.0803 26.252 36.2526 25.9566C36.3052 25.8687 36.3627 25.7839 36.4248 25.7023C37.8983 23.5128 38.6865 20.9341 38.6889 18.2949C38.7135 10.7316 32.3315 4.5957 24.4401 4.5957C17.5576 4.5957 11.8155 9.27969 10.4701 15.4977C10.2689 16.4193 10.1671 17.3598 10.1666 18.3031C10.1666 25.8746 16.3026 32.1746 24.194 32.1746C25.449 32.1746 27.1389 31.7973 28.0658 31.543C28.9928 31.2887 29.9116 30.9523 30.1494 30.8621C30.3933 30.7702 30.6517 30.7229 30.9123 30.7227C31.1967 30.7216 31.4784 30.7774 31.7408 30.8867L36.392 32.5355C36.494 32.5787 36.6018 32.6064 36.7119 32.6176C36.886 32.6176 37.0529 32.5484 37.176 32.4254C37.2991 32.3023 37.3682 32.1354 37.3682 31.9613C37.3625 31.8862 37.3487 31.812 37.3272 31.7398L35.9819 26.9574Z" stroke="url(#paint0_linear_252_1803)" stroke-width="1.7" stroke-miterlimit="10" stroke-linecap="round"/>
<path d="M6.07782 19.6895C5.00193 21.6223 4.48146 23.815 4.57397 26.0252C4.66648 28.2354 5.36835 30.377 6.602 32.2132C6.79149 32.4995 6.89814 32.7209 6.86532 32.8694C6.83251 33.0179 5.88669 37.9447 5.88669 37.9447C5.86394 38.06 5.87257 38.1793 5.91168 38.2901C5.95078 38.4009 6.01893 38.4992 6.10899 38.5747C6.22918 38.6704 6.37862 38.722 6.53228 38.7207C6.61439 38.7209 6.69566 38.7042 6.77099 38.6715L11.382 36.8668C11.6993 36.7417 12.0533 36.7476 12.3663 36.8832C13.92 37.4886 15.6377 37.8676 17.3563 37.8676C19.6624 37.87 21.9281 37.2618 23.9229 36.1047" stroke="url(#paint1_linear_252_1803)" stroke-width="1.7" stroke-miterlimit="10" stroke-linecap="round"/>
<defs>
<linearGradient id="paint0_linear_252_1803" x1="11.389" y1="18.829" x2="37.9759" y2="18.829" gradientUnits="userSpaceOnUse">
<stop stop-color="#A5A5A5"/>
<stop offset="1" stop-color="#454545"/>
</linearGradient>
<linearGradient id="paint1_linear_252_1803" x1="5.39317" y1="29.3561" x2="23.4389" y2="29.3561" gradientUnits="userSpaceOnUse">
<stop stop-color="#A5A5A5"/>
<stop offset="1" stop-color="#454545"/>
</linearGradient>
</defs>
</svg>
