<svg width="43" height="43" viewBox="0 0 43 43" fill="none" xmlns="http://www.w3.org/2000/svg">
<path d="M35.7896 26.9574C35.7076 26.6621 35.888 26.252 36.0603 25.9566C36.113 25.8687 36.1705 25.7839 36.2326 25.7023C37.7061 23.5128 38.4942 20.9341 38.4966 18.2949C38.5212 10.7316 32.1392 4.5957 24.2478 4.5957C17.3654 4.5957 11.6232 9.27969 10.2779 15.4977C10.0766 16.4193 9.97487 17.3598 9.97437 18.3031C9.97437 25.8746 16.1103 32.1746 24.0017 32.1746C25.2568 32.1746 26.9466 31.7973 27.8736 31.543C28.8005 31.2887 29.7193 30.9523 29.9572 30.8621C30.201 30.7702 30.4595 30.7229 30.7201 30.7227C31.0044 30.7216 31.2861 30.7774 31.5486 30.8867L36.1998 32.5355C36.3017 32.5787 36.4095 32.6064 36.5197 32.6176C36.6937 32.6176 36.8606 32.5484 36.9837 32.4254C37.1068 32.3023 37.1759 32.1354 37.1759 31.9613C37.1702 31.8862 37.1565 31.812 37.1349 31.7398L35.7896 26.9574Z" stroke="url(#paint0_linear_252_1815)" stroke-width="1.7" stroke-miterlimit="10" stroke-linecap="round"/>
<path d="M5.88544 19.6895C4.80954 21.6223 4.28908 23.815 4.38159 26.0252C4.4741 28.2354 5.17597 30.377 6.40962 32.2132C6.59911 32.4995 6.70575 32.7209 6.67294 32.8694C6.64013 33.0179 5.69431 37.9447 5.69431 37.9447C5.67156 38.06 5.68019 38.1793 5.71929 38.2901C5.7584 38.4009 5.82654 38.4992 5.91661 38.5747C6.03679 38.6704 6.18623 38.722 6.33989 38.7207C6.42201 38.7209 6.50328 38.7042 6.5786 38.6715L11.1896 36.8668C11.5069 36.7417 11.861 36.7476 12.174 36.8832C13.7276 37.4886 15.4454 37.8676 17.1639 37.8676C19.47 37.87 21.7357 37.2618 23.7305 36.1047" stroke="url(#paint1_linear_252_1815)" stroke-width="1.7" stroke-miterlimit="10" stroke-linecap="round"/>
<defs>
<linearGradient id="paint0_linear_252_1815" x1="12.7707" y1="7.46158" x2="45.9597" y2="32.7933" gradientUnits="userSpaceOnUse">
<stop stop-color="#EEDABC"/>
<stop offset="1" stop-color="#987952"/>
</linearGradient>
<linearGradient id="paint1_linear_252_1815" x1="6.26908" y1="21.6358" x2="28.806" y2="38.8269" gradientUnits="userSpaceOnUse">
<stop stop-color="#EEDABC"/>
<stop offset="1" stop-color="#987952"/>
</linearGradient>
</defs>
</svg>
