<svg width="46" height="45" viewBox="0 0 46 45" fill="none" xmlns="http://www.w3.org/2000/svg">
<path d="M39.5654 22.5005C39.5654 13.1841 32.0068 5.62549 22.6904 5.62549C13.374 5.62549 5.81543 13.1841 5.81543 22.5005C5.81543 31.8169 13.374 39.3755 22.6904 39.3755C32.0068 39.3755 39.5654 31.8169 39.5654 22.5005Z" stroke="url(#paint0_linear_288_1794)" stroke-width="1.7" stroke-miterlimit="10"/>
<path d="M31.0135 13.2667L20.7113 17.3876C20.0037 17.6705 19.361 18.0943 18.8222 18.6331C18.2834 19.172 17.8596 19.8146 17.5767 20.5222L13.4558 30.8244C13.4046 30.9522 13.3921 31.0922 13.4197 31.2271C13.4474 31.3619 13.514 31.4857 13.6114 31.583C13.7087 31.6804 13.8325 31.747 13.9673 31.7747C14.1022 31.8023 14.2422 31.7898 14.3699 31.7386L24.6722 27.6177C25.3798 27.3348 26.0224 26.911 26.5613 26.3722C27.1001 25.8334 27.5239 25.1907 27.8068 24.4831L31.9277 14.1809C31.9789 14.0531 31.9914 13.9131 31.9637 13.7782C31.9361 13.6434 31.8695 13.5196 31.7721 13.4223C31.6748 13.3249 31.551 13.2583 31.4162 13.2307C31.2813 13.203 31.1413 13.2155 31.0135 13.2667ZM22.6917 24.6123C22.2745 24.6123 21.8666 24.4886 21.5197 24.2568C21.1727 24.025 20.9023 23.6955 20.7427 23.31C20.583 22.9245 20.5412 22.5003 20.6226 22.0911C20.704 21.6818 20.9049 21.3059 21.2 21.0109C21.495 20.7158 21.8709 20.5149 22.2802 20.4335C22.6894 20.3521 23.1136 20.3939 23.4991 20.5536C23.8846 20.7132 24.2141 20.9836 24.4459 21.3306C24.6777 21.6775 24.8014 22.0854 24.8014 22.5027C24.8014 23.0622 24.5791 23.5988 24.1835 23.9944C23.7879 24.3901 23.2513 24.6123 22.6917 24.6123Z" fill="url(#paint1_linear_288_1794)"/>
<defs>
<linearGradient id="paint0_linear_288_1794" x1="7.26186" y1="22.7683" x2="38.7217" y2="22.7683" gradientUnits="userSpaceOnUse">
<stop stop-color="#A5A5A5"/>
<stop offset="1" stop-color="#454545"/>
</linearGradient>
<linearGradient id="paint1_linear_288_1794" x1="14.2014" y1="22.6501" x2="31.5138" y2="22.6501" gradientUnits="userSpaceOnUse">
<stop stop-color="#A5A5A5"/>
<stop offset="1" stop-color="#454545"/>
</linearGradient>
</defs>
</svg>
