<svg width="45" height="48" viewBox="0 0 45 48" fill="none" xmlns="http://www.w3.org/2000/svg">
<path d="M34.3807 17.0429C19.5633 18.2951 18.6242 19.2864 17.4242 34.0516C16.172 19.2864 15.1807 18.2951 0.415527 17.0951C15.1807 15.8429 16.1199 14.8516 17.372 0.0864258C18.572 14.8516 19.5633 15.8429 34.3807 17.0429Z" fill="url(#paint0_linear_490_7029)"/>
<path d="M33.7021 40.5213C28.0673 40.9909 27.6499 41.4083 27.2325 47.043C26.763 41.4083 26.3978 40.9909 20.7108 40.5735C26.3456 40.1039 26.763 39.7387 27.1804 34.0518C27.6499 39.6865 28.0673 40.0517 33.7021 40.5213Z" fill="url(#paint1_linear_490_7029)"/>
<path d="M44.711 28.5231C36.4675 29.2013 35.8936 29.7752 35.2154 38.0187C34.5371 29.7752 33.9632 29.2535 25.7197 28.5752C33.9632 27.897 34.5371 27.3231 35.2154 19.0796C35.8936 27.3231 36.4154 27.8448 44.711 28.5231Z" fill="url(#paint2_linear_490_7029)"/>
<defs>
<linearGradient id="paint0_linear_490_7029" x1="1.87118" y1="17.3386" x2="33.5316" y2="17.3386" gradientUnits="userSpaceOnUse">
<stop stop-color="#A5A5A5"/>
<stop offset="1" stop-color="#454545"/>
</linearGradient>
<linearGradient id="paint1_linear_490_7029" x1="21.2676" y1="40.6505" x2="33.3773" y2="40.6505" gradientUnits="userSpaceOnUse">
<stop stop-color="#A5A5A5"/>
<stop offset="1" stop-color="#454545"/>
</linearGradient>
<linearGradient id="paint2_linear_490_7029" x1="26.5336" y1="28.6994" x2="44.2362" y2="28.6994" gradientUnits="userSpaceOnUse">
<stop stop-color="#A5A5A5"/>
<stop offset="1" stop-color="#454545"/>
</linearGradient>
</defs>
</svg>
