<svg width="45" height="48" viewBox="0 0 45 48" fill="none" xmlns="http://www.w3.org/2000/svg">
<path d="M34.5731 17.0432C19.7557 18.2953 18.8166 19.2866 17.6166 34.0518C16.3644 19.2866 15.3731 18.2953 0.60791 17.0953C15.3731 15.8432 16.3122 14.8519 17.5644 0.0866699C18.7644 14.8519 19.7557 15.8432 34.5731 17.0432Z" fill="url(#paint0_linear_647_12193)"/>
<path d="M33.8946 40.5216C28.2598 40.9911 27.8424 41.4085 27.425 47.0433C26.9555 41.4085 26.5903 40.9911 20.9033 40.5737C26.5381 40.1042 26.9555 39.7389 27.3729 34.052C27.8424 39.6868 28.2598 40.052 33.8946 40.5216Z" fill="url(#paint1_linear_647_12193)"/>
<path d="M44.9034 28.5231C36.6599 29.2013 36.086 29.7752 35.4077 38.0187C34.7295 29.7752 34.1556 29.2535 25.9121 28.5752C34.1556 27.897 34.7295 27.3231 35.4077 19.0796C36.086 27.3231 36.6077 27.8448 44.9034 28.5231Z" fill="url(#paint2_linear_647_12193)"/>
<defs>
<linearGradient id="paint0_linear_647_12193" x1="2.06356" y1="17.3388" x2="33.7239" y2="17.3388" gradientUnits="userSpaceOnUse">
<stop stop-color="#A5A5A5"/>
<stop offset="1" stop-color="#454545"/>
</linearGradient>
<linearGradient id="paint1_linear_647_12193" x1="21.4601" y1="40.6507" x2="33.5698" y2="40.6507" gradientUnits="userSpaceOnUse">
<stop stop-color="#A5A5A5"/>
<stop offset="1" stop-color="#454545"/>
</linearGradient>
<linearGradient id="paint2_linear_647_12193" x1="26.726" y1="28.6994" x2="44.4286" y2="28.6994" gradientUnits="userSpaceOnUse">
<stop stop-color="#A5A5A5"/>
<stop offset="1" stop-color="#454545"/>
</linearGradient>
</defs>
</svg>
